<?xml version="1.0" encoding="iso-8859-1"?>
<!-- Uploaded to: SVG Repo, www.svgrepo.com, Generator: SVG Repo Mixer Tools -->
<svg height="800px" width="800px" version="1.1" id="Layer_1" xmlns="http://www.w3.org/2000/svg" xmlns:xlink="http://www.w3.org/1999/xlink" 
	 viewBox="0 0 392.622 392.622" xml:space="preserve">
<polygon style="fill:#FFFFFF;" points="298.085,254.17 365.253,94.493 76.347,94.493 105.051,254.17 "/>
<g>
	<path style="fill:#FFC10D;" d="M127.871,370.727c10.214,0,18.554-8.275,18.554-18.489c0-10.214-8.339-18.489-18.554-18.489
		s-18.554,8.275-18.554,18.489C109.317,362.388,117.657,370.727,127.871,370.727z"/>
	<path style="fill:#FFC10D;" d="M263.24,370.727c10.214,0,18.554-8.275,18.554-18.489c0-10.214-8.339-18.489-18.554-18.489
		c-10.214,0-18.554,8.275-18.554,18.489C244.687,362.388,253.026,370.727,263.24,370.727z"/>
</g>
<path style="fill:#194F82;" d="M305.39,276.02c4.396,0,8.339-2.65,10.02-6.659l76.347-181.527c1.422-3.426,1.099-7.176-1.034-10.279
	c-2.004-3.038-5.43-4.848-9.115-4.848H72.339L60.186,8.901c-0.905-5.172-5.495-8.857-10.731-8.857H10.925
	C4.913,0.045,0,4.893,0,10.97s4.848,10.925,10.925,10.925h29.543l12.024,63.741c0,0,26.634,147.717,31.806,176.614l-43.378,53.851
	c-2.651,3.232-3.168,7.758-1.293,11.507c1.745,3.814,5.624,6.206,9.826,6.206h42.473c-2.844,5.56-4.59,11.83-4.59,18.489
	c0,22.238,18.101,40.275,40.339,40.275s40.339-18.101,40.339-40.275c0-6.659-1.616-12.929-4.59-18.489h63.741
	c-2.844,5.56-4.59,11.83-4.59,18.489c0,22.238,18.101,40.275,40.339,40.275s40.339-18.101,40.339-40.275
	c0-6.659-1.616-12.929-4.59-18.489h48.549c6.012,0,10.925-4.848,10.925-10.925c0-6.012-4.849-10.925-10.925-10.925H72.21
	l28.962-35.943H305.39L305.39,276.02z M263.24,333.685c10.214,0,18.554,8.275,18.554,18.489s-8.339,18.489-18.554,18.489
	c-10.214,0-18.554-8.275-18.554-18.489C244.687,342.089,253.026,333.685,263.24,333.685z M127.871,333.685
	c10.214,0,18.554,8.275,18.554,18.489s-8.339,18.489-18.554,18.489s-18.554-8.275-18.554-18.489
	C109.317,342.089,117.657,333.685,127.871,333.685z M365.253,94.493L298.085,254.17H105.051L76.283,94.428h288.97V94.493z"/>
<path style="fill:#56ACE0;" d="M102.335,116.279l2.521,14.222h33.745c6.012,0,10.925,4.848,10.925,10.925
	c0,6.077-4.848,10.925-10.925,10.925h-29.931l4.59,25.406c0.646-0.065,1.228-0.129,1.875-0.129h6.271
	c6.012,0,10.925,4.848,10.925,10.925c0,6.012-4.848,10.925-10.925,10.925h-4.267l5.947,32.97h160.517l48.808-116.04L102.335,116.279
	L102.335,116.279z"/>
<g>
	<path style="fill:#194F82;" d="M176.485,220.683c-6.012,0-10.925-4.848-10.925-10.925V138.84c0-6.012,4.848-10.925,10.925-10.925
		c6.012,0,10.925,4.848,10.925,10.925v70.917C187.345,215.77,182.497,220.683,176.485,220.683z"/>
	<path style="fill:#194F82;" d="M222.448,220.683c-6.012,0-10.925-4.848-10.925-10.925V138.84c0-6.012,4.848-10.925,10.925-10.925
		c6.012,0,10.925,4.848,10.925,10.925v70.917C233.438,215.77,228.461,220.683,222.448,220.683z"/>
	<path style="fill:#194F82;" d="M268.477,220.683c-6.012,0-10.925-4.848-10.925-10.925V138.84c0-6.012,4.848-10.925,10.925-10.925
		c6.012,0,10.925,4.848,10.925,10.925v70.917C279.402,215.77,274.554,220.683,268.477,220.683z"/>
</g>
</svg>